<svg width="147" height="170" viewBox="0 0 147 170" fill="none" xmlns="http://www.w3.org/2000/svg">
<g clip-path="url(#clip0)">
<path d="M39.0844 24.9534C40.0452 27.7899 41.275 30.5114 41.7362 33.4246C42.3895 37.3728 41.0828 40.401 37.8162 42.7392C34.3573 45.1924 30.7832 46.3807 26.7479 44.0424C23.4428 42.1259 20.4067 39.711 16.4867 38.9444C13.4507 38.3694 10.4914 38.5227 7.57067 39.4043C5.30321 40.0943 4.64988 41.3209 5.49537 43.4675C6.264 45.4224 7.14792 47.3389 8.1087 49.2172C8.8389 50.6738 10.2993 51.0571 11.7981 51.3254C13.9887 51.7087 16.2177 51.9771 18.4083 52.4754C24.3652 53.8553 29.1307 57.1901 33.0507 61.7516C35.3565 64.4348 36.4326 67.578 36.5479 71.0661C36.7016 74.516 36.7401 77.9658 36.8554 81.4156C36.9322 84.3671 37.7777 87.0503 39.584 89.4269C41.0444 91.3435 41.2365 93.5284 40.6216 95.7899C40.4679 96.2882 40.3142 97.0165 39.584 96.9782C38.9307 96.9399 38.9691 96.2882 38.7769 95.8282C37.8546 93.2984 36.3558 91.1901 34.1652 89.6186C33.3581 89.0436 33.0891 88.3919 33.0122 87.3953C32.5126 79.4224 30.3989 71.9477 25.8256 65.2781C23.1738 61.4449 19.715 58.6851 15.1032 57.3818C11.4907 56.3852 7.95498 55.0052 4.57302 53.3187C3.30478 52.667 2.11341 51.9771 1.07576 51.0188C-0.0387467 49.9838 -0.461492 48.8722 0.42243 47.454C1.15263 46.304 1.19106 45.1157 0.883606 43.7741C0.499293 42.1642 0.307136 40.516 0.114979 38.8677C-0.115609 37.1045 0.845175 36.1078 2.42086 35.6095C4.45772 34.9962 6.60988 34.9196 8.68517 34.8812C11.2601 34.8046 13.7581 34.4213 16.1409 33.348C19.0616 32.0447 21.7903 33.0413 24.442 34.1913C26.8248 35.1879 28.8232 36.7978 31.0138 38.1394C31.7056 38.561 32.4358 39.0594 33.2044 39.3277C35.2797 40.0943 36.6632 39.1744 36.6632 36.9511C36.6632 33.6163 35.3565 30.6264 34.1652 27.5599C33.9346 26.9083 33.6271 26.2567 33.3581 25.605C32.8969 24.4934 31.8209 22.6535 32.0899 22.4235C33.166 21.5036 34.8954 21.2352 36.2405 21.4652C37.8546 21.7719 39.0075 21.0819 40.3142 20.6219C41.4671 20.2003 42.6201 19.2037 43.6577 19.3187C44.7722 19.472 44.8491 21.1969 45.5409 22.1552C48.4616 26.2183 52.0358 26.41 55.6099 22.8068C58.1464 20.2386 61.5667 19.7786 64.9871 19.5486C65.6789 19.5103 66.4091 19.587 67.1009 19.6253C68.8687 19.702 69.8679 18.8587 70.1369 17.1338C70.2522 16.3671 70.406 15.6005 70.3675 14.8722C70.1754 11.844 71.482 9.46747 73.3267 7.24425C77.0546 2.75947 81.9354 0.574574 87.6232 -0.000397433C88.1997 -0.0770603 88.584 -0.0770603 88.7762 0.612906C91.4664 11.1541 99.5754 15.5238 109.068 18.2837C109.452 18.3987 109.798 18.4754 110.182 18.552C110.298 18.5904 110.413 18.667 110.72 18.8587C109.222 20.2769 107.761 21.6185 106.301 22.9985C105.763 23.5351 105.071 23.3051 104.495 23.2668C97.1158 22.6918 91.5432 18.897 87.0467 13.3006C85.5479 11.4607 84.2028 9.5058 83.2036 7.35924C82.6656 6.2093 81.9738 6.13264 80.9362 6.43929C77.9769 7.28258 76.9777 8.66251 77.2083 11.6524C77.2852 12.534 77.3236 13.4539 77.3236 14.3356C77.2852 17.4404 76.0554 19.2037 73.1346 20.2769C71.5205 20.8519 69.8295 21.2736 68.1769 21.7719C65.2562 22.6535 62.8734 24.2251 61.0671 26.7166C59.6067 28.7099 57.8389 30.3198 55.7636 31.6614C52.3048 33.8846 49.384 33.8463 45.9636 31.4697C43.8114 30.0131 42.1589 28.0966 40.5448 26.1033C40.1605 25.6817 40.0452 24.9151 39.0844 24.9534Z" fill="#2458FC"/>
<path d="M77.6313 151.486C78.131 145.813 79.5145 140.868 82.858 136.69C86.1631 132.589 90.7749 130.979 95.8862 130.749C97.5004 130.672 99.0376 131.247 100.421 132.129C102.42 133.432 104.572 134.007 106.993 133.7C109.683 133.355 112.258 134.16 114.564 135.425C119.714 138.262 124.364 137.917 128.822 133.968C130.551 132.474 132.588 131.324 134.125 129.56C135.74 127.644 135.355 126.379 132.973 125.612C127.131 123.772 125.824 121.932 125.671 115.799C125.594 112.12 126.055 108.555 127.477 105.143C128.361 103.035 128.284 101.08 127.016 99.1251C126.209 97.8985 126.093 96.4803 126.362 95.062C126.554 93.9887 126.823 92.9538 126.977 91.8805C127.4 89.2356 126.785 88.4307 124.133 88.3923C123.019 88.3923 121.981 88.124 120.713 87.549C123.711 86.0924 126.554 84.9808 129.706 85.1342C132.434 85.2875 134.125 87.7407 133.28 90.9605C132.511 93.8354 132.857 96.2886 134.279 98.8185C135.278 100.62 134.702 102.575 134.087 104.415C133.434 106.293 132.627 108.095 132.012 109.973C131.013 113.001 131.551 115.761 133.472 118.291C134.779 120.054 136.393 121.511 137.892 123.082C138.699 123.926 139.506 124.731 140.159 125.689C141.581 127.72 141.581 129.407 139.736 130.979C134.702 135.31 129.783 139.833 123.711 142.708C120.329 144.318 116.947 144.51 113.603 142.516C110.951 140.945 108.3 139.45 105.609 137.955C104.187 137.188 102.765 136.268 100.959 137.342C100.114 137.84 99.2298 137.188 98.4612 136.767C97.1161 136.038 95.8478 135.195 94.4643 134.505C92.0815 133.355 90.2753 133.662 88.3537 135.502C85.6251 138.108 84.7412 141.366 85.5482 144.97C85.8557 146.35 85.4329 146.886 84.3953 147.499C82.2047 148.726 80.091 150.029 77.6313 151.486Z" fill="#2458FC"/>
<path d="M34.6267 93.6437C35.7797 95.752 35.895 97.8219 35.6644 99.8918C34.6652 108.478 33.051 116.911 29.5538 124.846C29.131 125.766 29.2463 126.532 29.6307 127.375C30.822 129.944 32.9742 131.554 35.3954 132.78C39.2385 134.773 43.1969 136.575 47.1169 138.453C49.0001 139.335 51.0369 139.91 53.0738 139.603C58.6463 138.722 63.7193 140.293 68.6385 142.555C70.6754 143.475 72.5969 144.625 74.5954 145.66C75.5561 146.158 75.9789 146.694 75.3256 147.844C73.2118 151.639 74.3648 151.141 70.022 150.451C67.0244 149.991 64.2189 148.918 61.7593 147.078C57.455 143.935 52.7663 142.67 47.4628 144.241C45.964 144.663 44.3883 144.433 42.8895 144.05C35.1263 142.018 28.2471 138.415 22.8667 132.359C22.2903 131.707 21.7907 131.055 22.2903 129.982C25.5954 122.929 27.4016 115.454 28.9773 107.903C29.7459 104.147 30.822 100.505 32.4746 97.0169C33.0126 95.9053 33.6275 94.7937 34.6267 93.6437Z" fill="#2458FC"/>
<path d="M121.52 82.7193C124.518 76.4329 127.438 70.1082 132.78 65.3551C134.202 64.0902 134.74 62.3653 134.625 60.487C134.433 57.2672 135.509 54.5456 137.315 51.9008C140.928 46.5727 139.967 44.1962 133.703 42.5096C131.589 41.9346 129.437 41.7046 127.323 41.168C117.984 38.7531 112.796 32.1984 109.606 23.6122C109.376 22.9989 109.491 22.5389 109.875 22.0406C111.144 20.5073 112.335 18.9357 113.757 17.1725C114.141 17.9774 114.487 18.6291 114.795 19.2424C120.29 30.4352 128.707 37.8715 141.389 39.7497C142.773 39.9414 144.118 40.363 145.463 40.7847C146.962 41.2063 147.384 42.1646 146.693 43.5829C146.116 44.8095 145.578 46.0361 144.925 47.186C142.58 51.4025 141.351 55.9256 141.235 60.717C141.158 64.0902 140.006 66.5817 136.7 67.9617C133.857 69.1499 131.781 71.2965 130.282 74.0564C128.246 77.7745 125.478 80.8027 121.789 82.9876C121.674 82.9493 121.597 82.8343 121.52 82.7193Z" fill="#2458FC"/>
<path d="M140.082 141.826C142.35 141.903 143.195 142.938 143.58 144.97C145.117 153.096 144.195 160.839 140.467 168.237C139.352 170.46 138.084 170.575 136.624 168.62C135.432 167.01 134.087 165.592 132.511 164.404C130.436 162.832 130.052 160.455 129.821 158.079C129.283 152.368 131.628 149.416 137.354 148.688C140.544 148.266 140.736 148.036 140.428 144.778C140.351 143.82 140.198 142.9 140.082 141.826ZM141.658 150.144C140.082 151.639 138.507 151.371 137.008 151.294C135.509 151.218 134.894 151.869 134.894 153.287C134.933 155.051 134.894 156.852 135.048 158.616C135.163 160.302 135.817 161.835 136.969 163.1C138.507 164.749 139.352 164.595 139.967 162.449C141.12 158.616 141.428 154.629 141.658 150.144Z" fill="#2458FC"/>
<path d="M121.751 83.0643C121.597 83.1026 121.443 83.1026 121.328 83.1409C121.405 82.9876 121.443 82.8726 121.52 82.7193C121.597 82.8343 121.674 82.9493 121.751 83.0643Z" fill="#2458FC"/>
<ellipse cx="42.3889" cy="105.183" rx="3.5" ry="3.49315" fill="#F26CA7"/>
<ellipse cx="42.3889" cy="105.183" rx="3.5" ry="3.49315" fill="url(#paint0_linear)"/>
<ellipse cx="82.0556" cy="44.6347" rx="6.61111" ry="6.59818" fill="#F26CA7"/>
<ellipse cx="82.0556" cy="44.6347" rx="6.61111" ry="6.59818" fill="url(#paint1_linear)"/>
<ellipse cx="58.7222" cy="122.26" rx="3.5" ry="3.49314" fill="#F26CA7"/>
<ellipse cx="58.7222" cy="122.26" rx="3.5" ry="3.49314" fill="url(#paint2_linear)"/>
<ellipse cx="110.056" cy="100.525" rx="3.5" ry="3.49315" fill="#F26CA7"/>
<ellipse cx="110.056" cy="100.525" rx="3.5" ry="3.49315" fill="url(#paint3_linear)"/>
<ellipse cx="103.056" cy="104.406" rx="3.5" ry="3.49315" fill="#F26CA7"/>
<ellipse cx="103.056" cy="104.406" rx="3.5" ry="3.49315" fill="url(#paint4_linear)"/>
<ellipse cx="58.7222" cy="32.9909" rx="3.5" ry="3.49315" fill="#F26CA7"/>
<ellipse cx="58.7222" cy="32.9909" rx="3.5" ry="3.49315" fill="url(#paint5_linear)"/>
<ellipse cx="131.833" cy="51.621" rx="3.5" ry="3.49315" fill="#F26CA7"/>
<ellipse cx="131.833" cy="51.621" rx="3.5" ry="3.49315" fill="url(#paint6_linear)"/>
<ellipse cx="90.6111" cy="22.1233" rx="3.5" ry="3.49315" fill="#F26CA7"/>
<ellipse cx="90.6111" cy="22.1233" rx="3.5" ry="3.49315" fill="url(#paint7_linear)"/>
<ellipse cx="113.167" cy="130.799" rx="3.5" ry="3.49315" fill="#F26CA7"/>
<ellipse cx="113.167" cy="130.799" rx="3.5" ry="3.49315" fill="url(#paint8_linear)"/>
<ellipse cx="128.722" cy="130.023" rx="3.5" ry="3.49314" fill="#F26CA7"/>
<ellipse cx="128.722" cy="130.023" rx="3.5" ry="3.49314" fill="url(#paint9_linear)"/>
<ellipse cx="42.3889" cy="63.2648" rx="3.5" ry="3.49315" fill="#F26CA7"/>
<ellipse cx="42.3889" cy="63.2648" rx="3.5" ry="3.49315" fill="url(#paint10_linear)"/>
<ellipse cx="37.7222" cy="51.621" rx="3.5" ry="3.49315" fill="#F26CA7"/>
<ellipse cx="37.7222" cy="51.621" rx="3.5" ry="3.49315" fill="url(#paint11_linear)"/>
<ellipse cx="40.8334" cy="81.1187" rx="3.5" ry="3.49315" fill="#F26CA7"/>
<ellipse cx="40.8334" cy="81.1187" rx="3.5" ry="3.49315" fill="url(#paint12_linear)"/>
<ellipse cx="92.1666" cy="126.142" rx="3.5" ry="3.49315" fill="#F26CA7"/>
<ellipse cx="92.1666" cy="126.142" rx="3.5" ry="3.49315" fill="url(#paint13_linear)"/>
</g>
<defs>
<linearGradient id="paint0_linear" x1="42.3889" y1="101.689" x2="42.3889" y2="108.676" gradientUnits="userSpaceOnUse">
<stop stop-color="#F26CA7"/>
<stop offset="1" stop-color="#2458FC"/>
</linearGradient>
<linearGradient id="paint1_linear" x1="82.0556" y1="38.0365" x2="82.0556" y2="51.2329" gradientUnits="userSpaceOnUse">
<stop stop-color="#F26CA7"/>
<stop offset="1" stop-color="#2458FC"/>
</linearGradient>
<linearGradient id="paint2_linear" x1="58.7222" y1="118.767" x2="58.7222" y2="125.753" gradientUnits="userSpaceOnUse">
<stop stop-color="#F26CA7"/>
<stop offset="1" stop-color="#2458FC"/>
</linearGradient>
<linearGradient id="paint3_linear" x1="110.056" y1="97.032" x2="110.056" y2="104.018" gradientUnits="userSpaceOnUse">
<stop stop-color="#F26CA7"/>
<stop offset="1" stop-color="#2458FC"/>
</linearGradient>
<linearGradient id="paint4_linear" x1="103.056" y1="100.913" x2="103.056" y2="107.9" gradientUnits="userSpaceOnUse">
<stop stop-color="#F26CA7"/>
<stop offset="1" stop-color="#2458FC"/>
</linearGradient>
<linearGradient id="paint5_linear" x1="58.7222" y1="29.4977" x2="58.7222" y2="36.484" gradientUnits="userSpaceOnUse">
<stop stop-color="#F26CA7"/>
<stop offset="1" stop-color="#2458FC"/>
</linearGradient>
<linearGradient id="paint6_linear" x1="131.833" y1="48.1279" x2="131.833" y2="55.1142" gradientUnits="userSpaceOnUse">
<stop stop-color="#F26CA7"/>
<stop offset="1" stop-color="#2458FC"/>
</linearGradient>
<linearGradient id="paint7_linear" x1="90.6111" y1="18.6301" x2="90.6111" y2="25.6164" gradientUnits="userSpaceOnUse">
<stop stop-color="#F26CA7"/>
<stop offset="1" stop-color="#2458FC"/>
</linearGradient>
<linearGradient id="paint8_linear" x1="113.167" y1="127.306" x2="113.167" y2="134.292" gradientUnits="userSpaceOnUse">
<stop stop-color="#F26CA7"/>
<stop offset="1" stop-color="#2458FC"/>
</linearGradient>
<linearGradient id="paint9_linear" x1="128.722" y1="126.53" x2="128.722" y2="133.516" gradientUnits="userSpaceOnUse">
<stop stop-color="#F26CA7"/>
<stop offset="1" stop-color="#2458FC"/>
</linearGradient>
<linearGradient id="paint10_linear" x1="42.3889" y1="59.7717" x2="42.3889" y2="66.758" gradientUnits="userSpaceOnUse">
<stop stop-color="#F26CA7"/>
<stop offset="1" stop-color="#2458FC"/>
</linearGradient>
<linearGradient id="paint11_linear" x1="37.7222" y1="48.1279" x2="37.7222" y2="55.1142" gradientUnits="userSpaceOnUse">
<stop stop-color="#F26CA7"/>
<stop offset="1" stop-color="#2458FC"/>
</linearGradient>
<linearGradient id="paint12_linear" x1="40.8334" y1="77.6256" x2="40.8334" y2="84.6119" gradientUnits="userSpaceOnUse">
<stop stop-color="#F26CA7"/>
<stop offset="1" stop-color="#2458FC"/>
</linearGradient>
<linearGradient id="paint13_linear" x1="92.1666" y1="122.648" x2="92.1666" y2="129.635" gradientUnits="userSpaceOnUse">
<stop stop-color="#F26CA7"/>
<stop offset="1" stop-color="#2458FC"/>
</linearGradient>
<clipPath id="clip0">
<rect width="147" height="170" fill="white"/>
</clipPath>
</defs>
</svg>
